<?xml version="1.0" encoding="UTF-8" standalone="no"?>
<svg
   width="88.684mm"
   height="62.186mm"
   version="1.1"
   viewBox="0 0 88.684 62.186"
   xml:space="preserve"
   id="svg26"
   sodipodi:docname="cardTool.svg"
   inkscape:version="1.4.2 (f4327f4, 2025-05-13)"
   xmlns:inkscape="http://www.inkscape.org/namespaces/inkscape"
   xmlns:sodipodi="http://sodipodi.sourceforge.net/DTD/sodipodi-0.dtd"
   xmlns="http://www.w3.org/2000/svg"
   xmlns:svg="http://www.w3.org/2000/svg"><defs
     id="defs26" /><sodipodi:namedview
     id="namedview26"
     pagecolor="#505050"
     bordercolor="#eeeeee"
     borderopacity="1"
     inkscape:showpageshadow="0"
     inkscape:pageopacity="0"
     inkscape:pagecheckerboard="0"
     inkscape:deskcolor="#505050"
     inkscape:document-units="mm"
     inkscape:zoom="0.73889098"
     inkscape:cx="-157.66873"
     inkscape:cy="3.3834491"
     inkscape:window-width="1920"
     inkscape:window-height="1009"
     inkscape:window-x="-8"
     inkscape:window-y="-8"
     inkscape:window-maximized="1"
     inkscape:current-layer="g26" /><g
     transform="translate(-58.947 -94.125)"
     id="g26"><path
       d="m61.375 105.83c6.0027-5.4304 22.666-9.2708 41.914-9.2708 19.248 0 35.779 3.8977 41.914 9.2708v48.06h-83.829z"
       fill="#b1b1b1"
       opacity=".997"
       stroke="#b1b1b1"
       stroke-linecap="round"
       stroke-linejoin="round"
       stroke-width="4.8555"
       style="paint-order:markers fill stroke"
       id="path1" /><circle
       cx="79.281"
       cy="102.9"
       r="2.1583"
       fill="none"
       opacity=".997"
       stroke="#929292"
       stroke-linecap="round"
       stroke-linejoin="round"
       style="paint-order:normal"
       id="circle1" /><circle
       cx="127.29"
       cy="102.9"
       r="2.1583"
       fill="none"
       opacity=".997"
       stroke="#929292"
       stroke-linecap="round"
       stroke-linejoin="round"
       style="paint-order:normal"
       id="circle2" /><rect
       x="79.135"
       y="149.25"
       width="48.309"
       height="6.5313"
       fill="#bd8422"
       opacity=".997"
       stroke="#bd8422"
       stroke-linecap="round"
       stroke-linejoin="round"
       style="paint-order:normal"
       id="rect2" /><rect
       x="69.817604"
       y="114.78245"
       width="66.942802"
       height="31.902952"
       fill="#369b32"
       opacity="0.997"
       stroke="#369b32"
       stroke-linecap="round"
       stroke-linejoin="round"
       stroke-width="5.9466"
       style="paint-order:normal"
       id="rect3" /><path
       d="M 103.29,115.99825 V 145.225"
       fill="none"
       stroke="#cbcbcb"
       stroke-width="2.13344"
       id="path3" /><path
       d="m85.762 149.75v6.037"
       fill="none"
       stroke="#d8c01a"
       stroke-width="2"
       id="path4" /><path
       d="m88.937 149.75v6.037"
       fill="none"
       stroke="#d8c01a"
       stroke-width="2"
       id="path5" /><path
       d="m92.112 149.75v6.037"
       fill="none"
       stroke="#d8c01a"
       stroke-width="2"
       id="path6" /><path
       d="m95.287 149.75v6.037"
       fill="none"
       stroke="#d8c01a"
       stroke-width="2"
       id="path7" /><path
       d="m98.462 149.75v6.037"
       fill="none"
       stroke="#d8c01a"
       stroke-width="2"
       id="path8" /><path
       d="m101.64 149.75v6.037"
       fill="none"
       stroke="#d8c01a"
       stroke-width="2"
       id="path9" /><path
       d="m104.81 149.75v6.037"
       fill="none"
       stroke="#d8c01a"
       stroke-width="2"
       id="path10" /><path
       d="m107.99 149.75v6.037"
       fill="none"
       stroke="#d8c01a"
       stroke-width="2"
       id="path11" /><path
       d="m82.587 149.75v6.037"
       fill="none"
       stroke="#d8c01a"
       stroke-width="2"
       id="path12" /><path
       d="m111.16 149.75v6.037"
       fill="none"
       stroke="#d8c01a"
       stroke-width="2"
       id="path13" /><path
       d="m114.34 149.75v6.037"
       fill="none"
       stroke="#d8c01a"
       stroke-width="2"
       id="path14" /><path
       d="m117.51 149.75v6.037"
       fill="none"
       stroke="#d8c01a"
       stroke-width="2"
       id="path15" /><path
       d="m120.69 149.75v6.037"
       fill="none"
       stroke="#d8c01a"
       stroke-width="2"
       id="path16" /><path
       d="m123.86 149.75v6.037"
       fill="none"
       stroke="#d8c01a"
       stroke-width="2"
       id="path17" /><path
       d="M 106.99,115.99825 V 145.225"
       fill="none"
       stroke="#cbcbcb"
       stroke-width="2.13344"
       id="path18" /><path
       d="M 110.7,115.99825 V 145.225"
       fill="none"
       stroke="#cbcbcb"
       stroke-width="2.13344"
       id="path19" /><path
       d="M 114.4,115.99825 V 145.225"
       fill="none"
       stroke="#cbcbcb"
       stroke-width="2.13344"
       id="path20" /><path
       d="M 118.11,115.99825 V 145.225"
       fill="none"
       stroke="#cbcbcb"
       stroke-width="2.13344"
       id="path21" /><path
       d="M 88.472,115.99825 V 145.225"
       fill="none"
       stroke="#cbcbcb"
       stroke-width="2.13344"
       id="path22" /><path
       d="M 92.177,115.99825 V 145.225"
       fill="none"
       stroke="#cbcbcb"
       stroke-width="2.13344"
       id="path23" /><path
       d="M 95.881,115.99825 V 145.225"
       fill="none"
       stroke="#cbcbcb"
       stroke-width="2.13344"
       id="path24" /><path
       d="M 99.585,115.99825 V 145.225"
       fill="none"
       stroke="#cbcbcb"
       stroke-width="2.13344"
       id="path25" /><rect
       x="85.17907"
       y="119.61632"
       width="35.948425"
       height="22.003614"
       fill="#252525"
       opacity="0.997"
       stroke="#252525"
       stroke-linejoin="round"
       stroke-width="3.3625"
       style="paint-order:normal"
       id="rect25" /><g
       id="g27"
       transform="matrix(0.03015364,0,0,0.03015364,98.553973,126.24981)"
       style="fill:#444444;fill-opacity:1"><g
         id="g28"
         style="fill:#444444;fill-opacity:1"><path
           d="m 315.47573,-193.29544 c -2.04611,29.10417 -0.56444,43.35639 6.35,60.74834 5.04472,12.62944 12.10028,23.84778 23.56556,37.394446 2.50472,2.998612 4.51555,5.573889 4.445,5.715001 -0.10583,0.105833 -1.65806,0.352777 -3.4925,0.493889 l -3.31611,0.246944 -4.19806,-2.786945 c -33.05528,-22.119165 -55.245,-33.655005 -81.52695,-42.403895 -26.3525,-8.78416 -52.59917,-13.82889 -84.91361,-16.33361 -9.34862,-0.70555 -43.32112,-0.59972 -53.37529,0.17639 -25.470553,2.01083 -46.072777,5.08 -69.920556,10.44222 -54.7863921,12.34723 -107.456118,34.78389 -153.281954,65.334452 -20.84917,13.899445 -36.30084,26.564168 -53.975,44.238336 -14.35806,14.322779 -25.99973,27.763613 -37.57084,43.39167 -32.84361,44.273613 -49.98861,84.631394 -58.77278,138.218342 -0.67028,4.26861 -1.19945,7.79639 -1.12889,7.86694 0.0706,0.0706 1.55222,-2.8575 3.28083,-6.49111 7.83167,-16.58055 16.47473,-33.09055 23.10695,-44.16778 28.36334,-47.483889 68.65056,-84.596114 119.41529,-109.9961156 C -77.695127,-17.259316 -36.561236,-30.735428 6.6893226,-39.343206 54.525992,-48.903484 104.02072,-51.19654 145.75433,-45.869595 c 31.60889,4.021667 61.27751,11.676945 90.87556,23.459724 21.62528,8.5725 45.72001,20.461112 51.15278,25.2236123 3.03389,2.6458335 14.46389,17.2508347 33.65501,42.9683357 15.80444,21.201946 26.74055,36.477225 50.8,70.943613 7.44361,10.65389 14.605,20.91973 15.91028,22.78945 l 2.39889,3.38667 28.64868,29.6314 c 7.12611,0.14111 7.92203,-4.61726 7.99259,-4.72305 0.14111,-0.14112 -26.34016,-83.575262 -28.70377,-91.653874 -0.28222,-0.9525 -0.35278,-1.5875 -0.17639,-1.411111 0.21167,0.211666 10.08944,15.73389 22.01333,34.572225 l 21.62528,34.21945 5.58612,8.17326 c 4.77743,6.99003 9.17919,3.35669 15.07544,-1.76069 2.89438,-2.89438 6.12729,-8.53477 7.32673,-10.36922 2.53073,-5.50902 1.99783,-6.27391 -1.7769,-59.014192 l -0.81139,-11.147778 0.67028,-5.609167 c 1.27,-10.230556 0.77611,-28.010557 -1.09361,-39.334725 -2.18722,-13.123334 -8.5725,-23.60083462 -50.20028,-82.373616 -14.11111,-19.931946 -100.25945,-141.040562 -100.57695,-141.393342 -0.14111,-0.14111 -0.42333,2.54 -0.67028,5.99722 z M 439.61824,41.725133 c 5.22111,14.851945 9.45444,27.022779 9.38389,27.093335 -0.3175,0.3175 -10.26584,-7.79639 -13.12334,-10.689168 -9.77194,-9.8425 -13.12333,-20.919723 -11.04194,-36.477224 0.38805,-2.786945 1.97555,-11.465279 2.29305,-12.3119454 0.38806,-1.1994445 3.63362,7.1966674 12.48834,32.3850024 z"
           id="path1-0"
           style="fill:#444444;fill-opacity:1;stroke-width:0.0352778"
           sodipodi:nodetypes="sccccccccccscccsccccccccccccccsccsccccccccsssscccs" /><path
           d="M 141.69739,-20.645982 C 98.552662,-17.82376 57.41877,-3.5362591 21.047379,21.228742 -24.919568,52.520133 -59.809293,98.769303 -76.777905,150.80403 c -14.957779,45.89639 -15.09889,92.95695 -0.423333,137.19528 13.158612,39.65223 37.041669,77.0114 66.886671,104.59862 43.356391,40.04028 102.411395,64.06445 167.886957,68.26251 7.72583,0.52916 28.8925,0.28222 31.22083,-0.3175 0.84667,-0.24695 2.8575,-1.23473 4.445,-2.18723 l 2.89278,-1.79916 1.12889,-5.96195 c 0.635,-3.28083 1.05833,-6.17361 0.9525,-6.42055 -0.28222,-0.70556 -6.42056,-4.40973 -7.9375,-4.79778 -0.70556,-0.17639 -2.39889,-0.42333 -3.77472,-0.56445 -1.34056,-0.10583 -5.15056,-0.635 -8.39611,-1.09361 C 114.67461,428.3696 61.122937,391.57488 29.196546,335.3421 -0.57790004,282.91931 -7.5629005,219.73681 10.322934,164.91514 17.449046,143.14875 27.926546,123.32264 41.825992,105.50736 52.02127,92.384025 66.308771,78.414024 80.31405,67.865968 c 35.20722,-26.528891 80.50389,-44.02667 134.05556,-51.858337 6.31473,-0.9525 10.30112,-0.811389 20.955,0.564444 3.81001,0.493889 7.72584,0.811389 8.71362,0.740834 3.56305,-0.352778 6.91444,-2.8575 8.74889,-6.526389 0.74083,-1.4463894 0.9525,-2.4341673 1.02305,-4.5861118 0.0706,-2.4341669 -0.0353,-2.9633336 -1.09361,-5.0800004 -1.79917,-3.6688891 -2.92806,-4.3391669 -14.04056,-8.1491671 -22.50722,-7.7258337 -44.62639,-12.1708337 -67.69806,-13.6525007 -6.38527,-0.388056 -22.93055,-0.388056 -29.28055,0.03528 z"
           id="path2"
           style="fill:#444444;fill-opacity:1;stroke-width:0.0352778"
           sodipodi:nodetypes="scccccccccccccccccccccccccss" /><path
           d="m 432.95074,224.9932 c -1.12889,2.61056 -1.41111,3.70417 -2.50472,9.8425 -7.62,42.58028 -31.39723,79.33973 -70.0264,108.26751 -21.20194,15.83972 -49.67111,29.73917 -77.71695,37.88833 -66.00472,19.15584 -134.19667,12.98223 -177.69417,-16.08666 -6.208894,-4.16278 -11.500561,-8.50195 -16.968617,-13.93473 -6.103056,-6.06778 -9.489722,-10.16 -13.687778,-16.61583 -4.974167,-7.58472 -5.644445,-8.43139 -7.337779,-9.27806 -4.056944,-1.94028 -8.043333,0.35278 -8.043333,4.65667 0,2.2225 1.234722,8.07861 2.54,12.065 8.995834,27.6225 35.560002,54.68056 71.472787,72.88389 22.71889,11.50056 46.70778,18.37973 73.80111,21.20195 5.96195,0.635 30.37417,0.635 36.33611,0 33.97251,-3.52778 64.34667,-14.11111 93.02751,-32.42028 26.70528,-17.03917 50.8,-38.02945 67.83917,-59.01973 21.09611,-26.07028 33.61973,-53.44583 37.57084,-82.19722 1.23472,-9.03112 1.05833,-23.53028 -0.38806,-30.69167 -0.88194,-4.40973 -1.48167,-5.29167 -4.55083,-6.80861 -1.44639,-0.70556 -2.71639,-1.30528 -2.82222,-1.30528 -0.0706,0 -0.45862,0.70555 -0.84667,1.55222 z"
           id="path3-9"
           style="fill:#444444;fill-opacity:1;stroke-width:0.0352778"
           sodipodi:nodetypes="ccccccccscccccccccsc" /></g></g></g></svg>
